<?xml version="1.0" encoding="UTF-8"?>
<svg id="Layer_2" data-name="Layer 2" xmlns="http://www.w3.org/2000/svg" viewBox="0 0 24.69 24.89">
  <defs>
    <style>
      .cls-1 {
        fill: #f3e9d4;
      }
    </style>
  </defs>
  <g id="Layer_1-2" data-name="Layer 1">
    <g>
      <g>
        <path class="cls-1" d="M20.58,9.16l4.11,1.25c-.51-1.39-1.03-2.78-1.54-4.17-.95-1.1-1.9-2.21-2.85-3.32-.15.87-.31,1.75-.46,2.62-.7,1.27-1.41,2.53-2.11,3.8.95-.06,1.9-.12,2.85-.18"/>
        <path class="cls-1" d="M5.43,11.04c-.91.14-1.82.29-2.73.43-.77.37-1.53.74-2.3,1.11.67.31,1.34.62,2.01.93.95.16,1.89.33,2.84.49,1.29-.25,2.58-.5,3.87-.74.45-.25.91-.5,1.37-.75-.43-.23-.86-.46-1.28-.69-1.26-.26-2.51-.52-3.77-.78"/>
        <path class="cls-1" d="M19.59,15.96c-.59-.06-1.19-.12-1.78-.19.34.45.68.89,1.02,1.34.34.76.69,1.51,1.03,2.27.17.92.34,1.83.51,2.75.93-1.1,1.85-2.19,2.78-3.28.52-1.39,1.03-2.77,1.55-4.16-.82.31-1.65.63-2.47.94-.88.11-1.76.22-2.64.33"/>
        <path class="cls-1" d="M12.43,5.52c.38-.67.75-1.33,1.13-2,1.01-.91,2.01-1.82,3.02-2.74-1.41-.26-2.82-.52-4.22-.78-1.52.3-3.05.59-4.57.89,1.16.95,2.33,1.9,3.49,2.85.38.59.77,1.19,1.15,1.78"/>
        <path class="cls-1" d="M4.31,15.69c-1.43-.38-2.87-.77-4.3-1.15.46,1.32.92,2.64,1.38,3.96,1.01,1.23,2.02,2.47,3.03,3.7.5-1.51,1-3.02,1.5-4.54.41-.63.83-1.26,1.24-1.89-.95-.02-1.9-.05-2.86-.08"/>
        <path class="cls-1" d="M7.09,9.3c-.47-.74-.94-1.47-1.41-2.21-.44-1.38-.88-2.76-1.31-4.14-1.04,1.21-2.09,2.42-3.14,3.63-.41,1.35-.82,2.69-1.23,4.04,1.56-.44,3.11-.87,4.67-1.31.81,0,1.61,0,2.42-.01"/>
        <path class="cls-1" d="M17.6,11.26c-.53.12-1.18.31-1.87.63-.46.21-.85.44-1.18.66.43.23.85.46,1.28.7.6.17,1.21.35,1.82.52.65.09,1.3.19,1.95.28.97-.16,1.95-.32,2.92-.47.71-.34,1.42-.69,2.12-1.03-.88-.4-1.77-.8-2.65-1.19-.8-.11-1.6-.21-2.4-.32-.66.07-1.32.14-1.99.21"/>
        <path class="cls-1" d="M17.19,18.1c-.51-.64-1.02-1.27-1.53-1.91-.39-.32-.79-.64-1.18-.96h0c-.39-.22-.79-.45-1.18-.67l.06,1.45c.06.27.12.54.18.82.36.94.71,1.88,1.07,2.83.59.69,1.18,1.38,1.77,2.08.71.49,1.42.98,2.13,1.47-.11-.94-.22-1.87-.33-2.81-.33-.76-.66-1.52-.99-2.29"/>
        <path class="cls-1" d="M10.36,19.56c.45-.95.9-1.91,1.35-2.86.08-.72.17-1.44.25-2.15-.74.43-1.49.85-2.23,1.28-.62.68-1.24,1.36-1.86,2.04-.41.86-.82,1.72-1.23,2.58-.12.81-.25,1.62-.37,2.43.62-.34,1.24-.69,1.86-1.03.74-.76,1.49-1.52,2.23-2.28"/>
        <path class="cls-1" d="M14.55,5.45c-.42,1.21-.84,2.43-1.25,3.64-.02.49-.04.97-.06,1.46.39-.23.78-.45,1.18-.68.9-.96,1.81-1.91,2.71-2.87.35-.82.69-1.64,1.03-2.47.09-.88.19-1.76.28-2.63-.78.54-1.56,1.07-2.33,1.61-.52.65-1.04,1.29-1.56,1.94"/>
        <path class="cls-1" d="M7.56,7.14l2.56,2.58c.46.28.92.56,1.38.85.03-.55.06-1.11.08-1.66-.51-1.15-1.02-2.31-1.54-3.46-.79-.79-1.58-1.59-2.37-2.38-.57-.31-1.15-.62-1.72-.93.08.63.15,1.26.23,1.88.46,1.04.92,2.09,1.37,3.13"/>
      </g>
      <path class="cls-1" d="M12.43,19.37c.38.67.75,1.33,1.13,2,1.01.91,2.01,1.82,3.02,2.74-1.41.26-2.82.52-4.22.78-1.52-.3-3.05-.59-4.57-.89,1.16-.95,2.33-1.9,3.49-2.85.38-.59.77-1.19,1.15-1.78"/>
    </g>
  </g>
</svg>